<svg version="1.2" xmlns="http://www.w3.org/2000/svg" viewBox="0 0 1500 1426" width="1500" height="1426"><style>.s0{fill:#e3e3e3}.s1{fill:#ffffff}.s2{fill:#fff9f7}.s3{fill:#c69fcf}.s4{fill:#b7e1ff}.s5{fill:#a6daff}.s6{fill:#8d6896}.s7{fill:#402147}.s8{fill:#7dc9ff}.s9{fill:#27142f}.s10{fill:#d9d9d9}.s11{fill:#8f8f8f}.s12{fill:#a5a5a5}.s13{fill:#f0f0f0}.s14{fill:#ad7159}.s15{fill:#e0ad90}.s16{fill:#727272}.s17{fill:#ffb199}.s18{fill:#f58282}.s19{fill:#dcdcdc}.s20{fill:#f5f5f5}.s21{fill:#0082de}.s22{fill:#61bdff}.s23{fill:#3595da}.s24{fill:#299ef1}.s25{fill:#0976c2}.s26{fill:#86cdff}</style><path class="s0" d="m0 179.2v-123.2c12.8 52.8 31.6 101.3 96.2 83.6c125-34.3 55.1 155.8 128.9 139.4q73.8-16.4 52.8 60.8z" /><path fill-rule="evenodd" class="s1" d="m1500 92.6v106.8l-344.6 198.9c-14.1-70.3 64.5 5.9 62.1-103.1c27-73.8 91 42.6 137.9-133.2c25.6-96.1 88.5-87.4 144.6-69.4zm-273.2-74.3l-69.4 40.1q8.6-89.5 69.4-40.1z" /><path class="s1" d="m845.5 1390.8h-439.9v-1038.1l245-64l194.9 112.5z" /><path class="s2" d="m888 1426h-557.4v-781l434.9-52.5l122.5 94.6z" /><path class="s2" d="m1500 568.7v857.3h-497.9v-729.5l308.9-178.4z" /><path class="s1" d="m1500 434.2v134.5l-189-50.6l-236.3 136.4v-136.1l234.4-135.3z" /><path class="s3" d="m1500 1186.1v1.8c-543.9 107.1-1181.7-44.4-1500-139.1v-1.9c318 94.7 956.2 246.5 1500 139.2z" /><path class="s4" d="m934.9 1426h-934.9v-723h836.5l98.4 70.3z" /><path class="s5" d="m1500 888.4v537.6h-426.8v-481.6l96.9-56z" /><path class="s6" d="m1500 939.8v2.6c-156.6 99.3-477.8 235.2-954.4 112l0.5-2.1c477.1 123.3 798.1-13.4 953.9-112.5z" /><path class="s7" d="m0 511c108.6 59.1 278.3 139.3 494.7 201.8c-163.5-62.6-331.7-151.5-494.7-276.3v-2.8c171.3 131.4 348.4 223 519.7 286.2c267.4 74.3 602.9 120.5 980.3 69.1v2.3c-365.3 49.6-691.3 8-954.4-62.1c407.5 143.9 778.5 129 954.4 109.4v2.2c-179.9 20.1-563.1 35.2-981-118.9c-227.8-63.3-406.1-147-519-208.4z" /><path class="s8" d="m1500 369.7v1056.3h-281.5v-778.7l174.2-100.5v-115.1z" /><path class="s8" d="m806.2 1426h-806.2v-759.6h145.3v-136h624.9h36h13.1l1.4 47.8h-14.5v227.6h31.4l3.8 62.1h-35.2z" /><path class="s8" d="m654.1 410.6c49.2 9.8 89.1 48.4 89.1 86.2c0 37.9-39.9 60.7-89.1 50.9c-29.2-5.7-55.1-21.7-71.3-41.6l-30.1 30.4l23.7-39.2c-7.2-11.3-11.3-23.6-11.3-35.8c0-37.8 39.8-60.6 89-50.9z" /><path fill-rule="evenodd" class="s9" d="m28 871.6l-8.3-151.9h-19.7v-4.4h19.5l-1.1-19.5h-18.4v-8.9h630v8.9h-75.4l1.1 19.5h0.8v4.4h-0.6l8.2 151.6l-8.8 0.3l-8.2-151.9h-167l8.3 151.6l-8.9 0.3l-8.2-151.9h-166.9l8.2 151.6l-8.8 0.3l-8.3-151.9h-166.9l8.2 151.6zm518.9-156.4l-1.1-19.5h-166.9l1 19.5zm-175.8 0l-1-19.5h-167l1.1 19.5zm-175.8 0l-1-19.5h-167l1.1 19.5z" /><path fill-rule="evenodd" class="s1" d="m491.4 577.4l39.5 22.3l-0.2-10.6l8.1-0.4l-0.1-10.4l73.2-3.7l1 10.3l6.6-0.3l2.1 23.5h-11.3l-1 14l9 2q4.5 10.6-3.1 12.5l-6.4 23.1l-3 11.2l-0.1 1.7c10.1 5.6 20.3 12.2 30.1 19.9q43 25.9 61.2 51.5q-3.7 113.5-60.6 318.3q62.8 15.1 60.3 57.8l-124.5-25.6c-0.4 5.1-1.6 10.6-3.7 16.3l-108.5-57.2l18.9-33.1l55.3-241.2h-125.7v-0.4l-50 0.4q-2.4 0-4.6-0.1q-2.3-0.1-4.5-0.3c-10.3-0.8-19.3-3-27.1-6.2q-6.7-2.8-12.3-6.6q-1.4-0.9-2.7-1.9q-4.1-3-7.5-6.4h-0.1q-3.4-3.4-6.4-7.1q-1-1.3-1.9-2.5v-0.1q-0.9-1.2-1.8-2.5v-0.1q-1.3-1.8-2.4-3.6q-9.8-0.5-15.4-1.3v-0.2l-0.1-0.5v-0.1l-0.2-0.7v-0.2l-0.2-0.9l-0.1-0.3l-0.2-1.1l-0.1-0.2l-0.1-0.9l-0.2-0.9l-0.2-0.8l-0.3-1.4l-0.2-1l-0.2-1.2l-0.3-1.5l-0.2-1.1l-0.3-1.7l-0.2-1.1l-0.4-2l-0.2-1.3l-0.4-2.1l-0.2-1.2l-0.4-2.4l-0.2-1.2l-0.4-2.6l-0.2-1.1q-0.2-1.5-0.4-3q-0.4-2-0.7-4.2q-0.6-3.9-1.1-8.1l-0.2-1.1q-0.2-1.6-0.4-3.4l-0.2-1.5q-0.3-1.8-0.5-3.5l-0.2-1.7q-0.2-1.8-0.4-3.6l-0.2-1.7q-0.2-1.8-0.4-3.6l-0.3-2.1q-0.1-1.7-0.3-3.4l-0.3-2.4l-0.3-3.5l-0.2-2.3q-0.2-1.9-0.4-3.8l-0.2-2.2q-0.1-2-0.3-4l-0.1-2.1q-0.2-2.1-0.4-4.2l-0.1-2.2q-0.2-2.1-0.3-4.4l-0.1-1.7q-0.1-2.4-0.3-4.9l-0.1-1.4c-0.5-10.1-0.8-20.6-0.9-31.5v-1.4q0-2.6 0-5.3v-1.9q0-2.5 0.1-5.1q0-1.2 0-2.4q0-2.4 0.1-4.8q0-1.3 0.1-2.6q0.1-2.4 0.1-4.9l0.1-2.5q0.1-2.5 0.3-5l0.1-2.7q0.1-2.4 0.3-4.8q0.1-1.4 0.2-2.8q0.1-2.5 0.3-4.9q0.1-1.3 0.2-2.7q0.2-2.5 0.4-5q0.2-1.3 0.3-2.6q0.2-2.6 0.5-5.2q0.1-1.2 0.3-2.4q0.2-2.7 0.6-5.4q0.1-1.1 0.2-2.2q0.4-2.8 0.8-5.6q0.1-0.7 0.2-1.5q1.9-14.1 4.7-28.1q0.1-0.5 0.2-1q0.6-2.9 1.2-5.7q0.2-1.1 0.5-2.1q0.6-2.7 1.2-5.3q0.3-1.3 0.6-2.5q0.6-2.5 1.3-5q0.3-1.4 0.7-2.8q0.6-2.4 1.3-4.8q0.4-1.4 0.8-2.9q0.7-2.4 1.4-4.7q0.5-1.5 0.9-2.9q0.7-2.4 1.5-4.7q0.5-1.5 1-2.9q0.8-2.3 1.6-4.6q0.5-1.5 1-3q0.8-2.2 1.7-4.5q0.6-1.4 1.1-2.9q0.9-2.3 1.8-4.5q0.6-1.4 1.2-2.8q1-2.3 2-4.6q0.6-1.3 1.2-2.6q1-2.3 2.1-4.6q0.6-1.3 1.2-2.5q1.1-2.3 2.3-4.7q0.5-1 1.1-2.1q4.8-9.3 10.3-18.2l0.1-0.1c5.9-9.5 12.5-18.6 19.7-27.3l2.2-20.8l13.9 3.6c1.8-13 3-26.1 3.8-38.2l-4.1 1l-56.7-109.4c-18.3-21-3.5-41.4 12.5-27.3q0.3-26.7 14.1-33.8q13.8-7 13.8 11c30.6-33.8 102.7-35.6 144.6-29.4q-6.1-16.3 11.8-8.1c16.5 7.5 23.1 26.1 19.6 43.7q8.7-19.6-4.9-38.8q30.2 38.1-4.2 58.6c-5 6.5-12 11.9-21 15.2l4.5 33.7c11.4-13.8 19.8 13.4 2.4 17.9c0.9 7.5 1.1 11.1 1.3 18.5c2.8-1.5 5.3 2.2 2.2 10.8c4.5 3.4 0.4 7.4-2.5 8.8c-3.2 28.6-19.7 39.3-51 47.8l0.8 19.7l1 22.5l3 10.9q1.3 0 2.7 0.2c38.2 4.8 34.7 63.9 26.5 107.7l24.7 91zm84.9 406.5l-26.2 61q15.1 11.8 20.4 31.6l9.8-21.5l-6.8-0.8zm-146.2-667.9z" /><path class="s9" d="m418.3 688.3l80.1-43.9q126.7 0.2 196.2 101.5l-131 304.4l-71.2-24.4l55.2-241.3h-125.6z" /><path class="s9" d="m548.6 1034.6l15 15.7q33.3 26 18.3 65.8l-108.4-57.1l18.9-33.1z" /><path class="s10" d="m0 784.3h584.8l-4.9 141.7l-53.6 2.3v497.7h-526.3z" /><path class="s11" d="m529.3 1014.9l-3 411.1h-195.7l43.3-382.7z" /><path class="s12" d="m582.7 868l-1.5 60.3h-581.2v-60.3z" /><path class="s13" d="m0 1271.6v-243.9l207.1 232.3c-16-5-34.5-9-54.2-10.1q-61.9-3.4-90 36.2z" /><path class="s9" d="m526.3 928.3v25.1l-526.3-17.1v-8z" /><path class="s14" d="m158.1 840.8c0-2.9 4-5.3 9-5.3c4.9 0 9 2.4 9 5.3c0 3-4.1 5.4-9 5.4c-5 0-9-2.4-9-5.4z" /><path class="s14" d="m189.2 848.5c0-2.6 4-4.6 8.8-4.6c4.9 0 8.8 2 8.8 4.6c0 2.5-3.9 4.5-8.8 4.5c-4.8 0-8.8-2-8.8-4.5z" /><path class="s14" d="m218.5 819.4c0-1.2 2.3-2.2 5.2-2.2c2.8 0 5.1 1 5.1 2.2c0 1.2-2.3 2.2-5.1 2.2c-2.9 0-5.2-1-5.2-2.2z" /><path class="s14" d="m442.6 848.1c0-3.7 5-6.8 11.2-6.8c6.2 0 11.3 3.1 11.3 6.8c0 3.8-5.1 6.8-11.3 6.8c-6.2 0-11.2-3-11.2-6.8z" /><path class="s14" d="m505.9 827c0-1.9 2.1-3.5 4.7-3.5c2.5 0 4.6 1.6 4.6 3.5c0 1.9-2.1 3.5-4.6 3.5c-2.6 0-4.7-1.6-4.7-3.5z" /><path class="s15" d="m32 864.6c11.6 0 21 3.6 21 8c0 4.5-9.4 8-21 8c-11.5 0-20.9-3.5-20.9-8c0-4.4 9.4-8 20.9-8zm35.1 22.4c3.2 0 5.9 1.5 5.9 3.5c0 1.9-2.7 3.5-5.9 3.5c-3.2 0-5.9-1.6-5.9-3.5c0-2 2.7-3.5 5.9-3.5z" /><path fill-rule="evenodd" class="s9" d="m12.5 868h291.5l-161.4 11.3zm428.2-3.2l59.3 3.2l-91.8 8l-39.9-8z" /><path class="s16" d="m372.7 1030c4.7 0 9.2 0.7 12.8 2q-0.4-0.1-0.9-0.1c-7.6 0-13.8 4.4-13.8 9.8c0 5.4 6.2 9.7 13.8 9.7q0.5 0 0.9 0c-3.6 1.3-8.1 2-12.8 2c-12.7 0-23-5.3-23-11.7c0-6.5 10.3-11.7 23-11.7zm-284.9 27.4c11.1 0 20.1 4.6 20.1 10.3c0 5.7-9 10.3-20.1 10.3c-11.2 0-20.2-4.6-20.2-10.3c0-5.7 9-10.3 20.2-10.3zm50.1 34.7c5.7 0 10.3 2.4 10.3 5.4c0 3-4.6 5.4-10.3 5.4c-5.7 0-10.3-2.4-10.3-5.4c0-3 4.6-5.4 10.3-5.4zm274.2-77.1c2.9 0 5.6 0.5 7.8 1.3q-0.3-0.1-0.6-0.1c-4.6 0-8.4 2.7-8.4 6c0 3.2 3.8 5.9 8.4 5.9q0.3 0 0.6 0c-2.2 0.7-4.9 1.2-7.8 1.2c-7.7 0-14-3.2-14-7.1c0-4 6.3-7.2 14-7.2z" /><path class="s9" d="m285.3 745.9q135.1 21.3 237.9-95.6c-63.9-47.2-234.3-13.8-237.9 95.6z" /><path class="s9" d="m637.6 1046.8l12.3 20.9q62.7 15.1 60.3 57.8l-133.6-27.5l19.5-42.7z" /><path class="s9" d="m464.7 645.6q179.4 10 245.8 103.8q-3.7 113.4-60.6 318.3l-62.9-8.1l11.1-276.6l-226.2 1.6q-102.4 0-87.8-126.8z" /><path class="s9" d="m464.7 645.6c13.8 0.7 27 2 39.6 3.7c-123.3 59.9-143.2 106.2-136.9 135.3q-97.5-3.8-83.3-126.8z" /><path class="s17" d="m441.9 280.3l3.6 83.4l-88.1-24.3q6.8-47 4.6-95.1z" /><path class="s18" d="m394.2 314l7.1-52l40.6 18.3l2.6 60.8q-37.3-2.1-50.3-27.1z" /><path class="s18" d="m482.9 570.4l76.3 43l72.5 16l-12.5 46.9l-127-28.5z" /><path class="s19" d="m469.2 518.8c-28.8 7.7-71.6 9.7-98.5-17.2q29.4-133.3 80.5-126.9c51.1 6.5 27.7 109.8 18 144.1z" /><path class="s9" d="m552.1 583.7l73.3-3.8l1.8 19.4h-74.8z" /><path class="s9" d="m624.4 604.3l-6.7 93.3h-56.1l-9.8-90.9z" /><path class="s14" d="m544.2 594.5l88.8-4.6l2.1 23.5h-90.6z" /><path class="s20" d="m445.5 363.7l77.7 286.6c-90.6-2.4-161.4 24.9-237.9 95.6q-58.2-253 56.1-389.2l2.2-20.9l13.8 3.6z" /><path class="s19" d="m502.3 573.4l20.9 76.9c-90.6-2.4-161.4 24.9-237.9 95.6q-51.1-221.9 36.3-361.9l41.7 38.9q38.7 193 139 150.5z" /><path class="s17" d="m376.9 476.7l-13.4 76.3c74.1 18.1 109 43.6 175 80.5l50.5-8.2l-6.7 48.2l-47.4-12.5c-103.1-23.6-164.4-17.8-250.1-68.3l14.6-109.2z" /><path class="s18" d="m376.9 476.7l-11.8 67.2c-17.8-6.8-45.5-14.5-72.8-10.2l7.1-50.2z" /><path class="s18" d="m589 625.3l42.7 4.1q4.6 10.7-3 12.5l-7.3 26.2l-39.1 5.4z" /><path class="s20" d="m380.1 521.3c-28.7 7.7-71.6 9.6-98.5-17.3q29.4-133.3 80.5-126.9c51.1 6.5 27.7 109.8 18 144.2z" /><path class="s9" d="m379.3 521c3.5-12.5 8.9-34.3 11.7-57.2c2.4-18.7 3.1-38.1-0.2-53.7c-3.3-15.5-10.5-27.3-23.9-31.1q-2.4-0.7-4.9-1l0.2-1.7q2.7 0.3 5.2 1c14.1 4 21.7 16.3 25.1 32.4c3.4 15.9 2.7 35.5 0.3 54.3c-2.9 23-8.3 44.9-11.8 57.5z" /><path class="s17" d="m331.9 183.2l152.1-20.3l7.9 58.3c15.2-3.1 23.8 11.3 1.8 14.4c0.9 7.5 1 11.1 1.3 18.4c2.8-1.4 5.2 2.3 2.2 10.9c4.5 3.4 0.3 7.4-2.5 8.7c-3.3 28.7-19.8 39.3-51 47.8c-5 1.8-10.1 3-15.5 3.8c-41.8 5.5-80.6-24.1-86.2-66z" /><path class="s18" d="m331.9 183.2l152.1-20.3l4.2 31.8q-22.6 6-37.8-2.2l-5 35.4l-16.1-19q-76.4 32.7-89.3 35z" /><path class="s9" d="m475.2 203.1c4.2-1.4 7.6 0.7 7.6 4.8c0 0.9-0.2 1.9-0.5 2.9c-1.2-2.4-3.9-3.4-7.1-2.3c-3.2 1.1-5.9 3.9-7 7l-4.4-3.5l4-0.5c0.6-3.6 3.7-7.2 7.4-8.4z" /><path class="s9" d="m444.2 185.1l1.2 42.8l-10.2 1.3l-34.9 12.9l-14.2 52.7l-28.9 7.5l-56.8-109.5c-18.2-21-3.5-41.3 12.6-27.3q0.3-26.7 14.1-33.7q13.8-7.1 13.8 11c30.5-33.9 102.7-35.6 144.6-29.5q-6.1-16.2 11.7-8.1c16.5 7.5 23.2 26.1 19.6 43.7q8.8-19.6-4.8-38.8q30.2 38.1-4.2 58.6c-11.4 14.6-32.5 23.8-63.6 16.4z" /><path class="s17" d="m411.4 214c11.9-1.6 22.8 6.8 24.3 18.6c1.6 11.8-6.7 22.7-18.5 24.3c-11.9 1.6-22.8-6.8-24.3-18.6c-1.6-11.8 6.7-22.7 18.5-24.3z" /><path class="s18" d="m418.4 227.5c6-0.8 11.6 2.6 14 7.9q-0.5 0-0.9 0.1c-4.6 0.6-7.8 4.8-7.2 9.3c0.4 2.8 2 5 4.3 6.2c-1.9 1.5-4.2 2.6-6.7 2.9c-7.3 1-14-4.1-15-11.4c-0.9-7.3 4.2-14 11.5-15z" /><path class="s9" d="m475.1 176.9l3.6 4.9l0.2-6.3q7.2 4.4 7.2 12.4l-33.9 7.3q6.6-12.5 22.9-18.3z" /><path fill-rule="evenodd" class="s1" d="m432.6 1042.4c6.9-6.4 16.3-10.2 27.2-10.2h56.6l-2-13.1c-2-12.4 6.6-22.6 19.1-22.6c12.4 0 24.1 10.2 26.1 22.6l2 13.1h66.3c11.8 0 22.9 9.6 24.6 21.5l9.7 65.7c1.5 10.6-4.9 19.4-14.7 21.2l4 25.1c11.4 0.6 22 10 23.6 21.5l9.7 65.8c1.7 11.3-5.9 20.7-16.9 21.4c-1.2 21-17.4 36.9-39.7 36.9h-142.7c-21.6 0-42.2-14.8-50.7-34.8c-31.7-8-57.4-35.2-61.6-68.9l-9.8-79.8c-4.8-38.7 20.4-73 57.3-80.6c3.6-2.2 7.6-3.8 11.9-4.8zm-29.5 45.6q-0.3-1.6-0.4-3.1c-9.3 14-13.8 31.4-11.5 49.8l9.8 79.7c2.7 21.9 14.5 41 31.1 54q-0.4-1.9-0.7-3.8l-2.9-17.8c-8.3-6.2-14.3-15.5-15.8-25.9l-0.7-4.6q-1-2.7-1.4-5.6l-3-20.7c-1.4-9.1 2-17.1 8.3-21.9zm146-65c-1-6-6.7-11-12.8-11c-6.1 0-10.3 5-9.3 11l1.4 9.1h22.1z" /><path class="s7" d="m476.3 1060q-5-0.3-10.1 0.1c-42.4 3-72.7 39.9-67.5 82.1l9.8 79.7c3.6 28.9 23 53.1 48.5 64.4c-38.2-2.3-71.5-32.5-76.3-71.2l-9.8-79.8c-5.2-42.1 25.1-79.1 67.5-82.1c13.3-0.9 26.2 1.6 37.9 6.8z" /><path class="s9" d="m598.8 1132.2h-162.5l-7.6-46.3c-4.2-25.4 13.2-46.2 38.6-46.2h116.3z" /><path class="s7" d="m646.6 1095.5l28.2 176.6c4.1 25.7-13.5 46.7-39.1 46.7h-142.8c-25.6 0-49.9-21-54-46.7l-28.3-176.6c-4.1-25.7 13.5-46.6 39.1-46.6h142.8c25.6 0 50 20.9 54.1 46.6z" /><path class="s9" d="m640.5 1159.5h-142.2c-11.8 0-22.9-9.6-24.6-21.5l-9.7-65.7c-1.7-11.8 6.6-21.5 18.4-21.5h123.7c20.1 5.8 37.1 23.7 40.5 44.7l9 56.7c-3.2 4.5-8.6 7.3-15.1 7.3z" /><path class="s9" d="m484.3 1220.8l-2.7-18.2c-1.7-11.8 6.5-21.5 18.4-21.5h142.2c7.3 0 14.3 3.7 19 9.2h0.5l13.1 81.8q0.1 0.6 0.2 1.2v0.1q0.1 0.5 0.2 1v0.1v0.1q0 0.5 0.1 0.9v0.3v0.1v0.1v0.1v0.1v0.3v0.1l0.1 0.5v0.1v0.1v0.1v0.1v0.1v0.1v0.1v0.1v0.4v0.1c0.5 22.7-16.2 40.4-39.7 40.4h-142.7c-25.7 0-50-21-54.1-46.7l-7.7-47.7c9.4 1.8 25.4 1.7 53.1-3.6z" /><path class="s21" d="m682.6 1194.7l9.7 65.7c1.7 11.9-6.5 21.5-18.3 21.5h-142.3c-11.8 0-22.9-9.6-24.6-21.5l-9.6-65.7c-1.8-11.8 6.5-21.5 18.3-21.5h142.2c11.8 0 22.9 9.7 24.6 21.5z" /><path class="s22" d="m682.6 1194.7l9.7 65.7c1.7 11.9-6.5 21.5-18.3 21.5h-111.8c-11.8 0-22.9-9.6-24.6-21.5l-9.7-65.7c-1.7-11.8 6.5-21.5 18.4-21.5h111.7c11.8 0 22.9 9.7 24.6 21.5z" /><path class="s9" d="m484.3 1202l3.8 26.4c2.8 18.7-10.3 34-29 34c-18.7 0-36.2-15.3-38.9-34l-3.9-26.4c-2.7-18.7 10.4-34 29.1-34c18.7 0 36.2 15.3 38.9 34z" /><path class="s23" d="m468.4 1197.5l3.1 20.7c2.1 14.7-8.2 26.7-22.8 26.7h-0.1c-14.6 0-28.4-12-30.5-26.7l-3-20.7c-2.2-14.7 8.1-26.7 22.8-26.7c14.6 0 28.4 12 30.5 26.7z" /><path class="s8" d="m446.2 1172.1c5.3 4.2 9.2 10.4 10.2 17.3l2.6 18.2c1.9 12.8-7.1 23.4-20 23.4c-7.7 0-15.2-3.9-20.3-9.7q-0.4-1.5-0.6-3.1l-3-20.7c-2.2-14.7 8.1-26.7 22.8-26.7c2.8 0 5.6 0.4 8.3 1.3z" /><path fill-rule="evenodd" class="s24" d="m567.1 1026.6l4.3 27.4h-45.2l-4.3-27.4c-2-12.4 6.6-22.6 19.1-22.6c12.4 0 24.1 10.2 26.1 22.6zm-32.6 4l2.1 13.3h22l-2.1-13.3c-0.9-6.1-6.6-11.1-12.7-11.1c-6.1 0-10.3 5-9.3 11.1z" /><path class="s25" d="m660 1061.2l9.7 65.7c1.7 11.8-6.5 21.5-18.4 21.5h-142.2c-11.8 0-22.9-9.7-24.6-21.5l-9.7-65.7c-1.7-11.9 6.6-21.5 18.4-21.5h142.2c11.8 0 22.9 9.6 24.6 21.5z" /><path class="s24" d="m660 1061.2l9.7 65.7c1.7 11.8-6.5 21.5-18.4 21.5h-118c-11.8 0-22.9-9.7-24.6-21.5l-9.6-65.7c-1.8-11.9 6.5-21.5 18.3-21.5h118c11.8 0 22.9 9.6 24.6 21.5z" /><path class="s24" d="m607.9 1136.9l8 45.3c1.5 8.7-4.4 15.9-13.1 15.9c-8.7 0-17.2-7.2-18.7-15.9l-8-45.3c-1.6-8.8 4.3-15.9 13.1-15.9c8.7 0 17.1 7.1 18.7 15.9z" /><path class="s26" d="m563.1 1068.4c0-5.3 6.9-9.6 15.3-9.6c8.5 0 15.4 4.3 15.4 9.6c0 5.2-6.9 9.5-15.4 9.5c-8.4 0-15.3-4.3-15.3-9.5z" /><path fill-rule="evenodd" class="s9" d="m27.1 1291.5c13.1 0 26 4.7 36.8 12.5q1.6-5.2 3.9-10.1c-3.5-19-7.5-35.7-11.6-50.2c-13.4-8.4-31.6-14.7-56.2-15.8q26.5-5.3 53.2 5.8q-15.7-51-32.5-72c17.9 18.2 32.3 49.4 42.5 77c10 5.9 19.5 14.5 27.2 27.1c13.7-10.4 31.4-16.5 51.7-16.5c34.9 0 69.1 17.9 92.4 44.9c6.3-5.6 14.9-8.9 25-8.9c21 0 41.6 14.6 50.1 34.2h-309.6v-19.5c7.2-5.4 16.5-8.5 27.1-8.5zm38.8-36.6c3.5 10.4 6.3 19.8 8.3 27q3.4-4.3 7.3-8.1c-3.6-6-8.6-12.7-15.6-18.9zm293.7 42.9c12.7 0 25.1 9.4 29.1 21.7h-49.5c-0.9-12.3 7.7-21.7 20.4-21.7z" /><path class="s9" d="m248.6 1319l-0.6-175.9h-167l0.6 175.5l-8.8 0.4l-0.6-175.9h-72.2l0.5-8.9h80.5h175.8h175.8h175.7h175.8h75.9l-0.4 8.9h-75.5l0.6 175.5l-8.8 0.4l-0.6-175.9h-166.9l0.6 175.5l-8.9 0.4l-0.6-175.9h-166.9l0.6 175.5l-8.9 0.4l-0.6-175.9h-166.9l0.6 175.5z" /><path class="s9" d="m829.5 1426h-829.5v-107.2h61.5l0.6-6.7c0.3-4 3.7-6.9 7.7-6.8l48.6 1.5c4 0.1 7.2 3.4 7.3 7.4v4.6h117.4l0.5-6.4c0.3-3.9 3.6-6.9 7.5-6.9h27.6c3.3 0 6.1 2 7.2 5.2l2.6 8.1h122.6l0.1-3.4c0.2-4 3.5-7.2 7.5-7.2h38.5c3.6 0 6.7 2.6 7.4 6.2l0.7 4.4h129.6l-0.1-1.9c-0.1-2.2 0.5-4 2-5.6c1.5-1.5 3.3-2.3 5.5-2.3h27c3.9 0 7.1 2.9 7.5 6.8l0.3 3h114.2h13.9l-0.2-4c-0.2-4.1 3-7.6 7.1-7.8l27.1-1.6c3.4-0.2 6.4 1.8 7.6 5l2.9 8.4h19.8h41.4l-3.9 64h-37.5z" /><path class="s9" d="m1394.3 1426v-169.9h-22.3l-15.3-115.4h37.6h50.3h55.4v285.3z" /><path class="s9" d="m1411.4 1426l0.9-553l-107.8-12.4l3.5-11.8l104.3 10.7l0.1-42.8l-86.8-10l3.5-11.8l83.3 8.5l0.2-106.5l3.2-5.1l-1.2-65.3l13.3-4.1l1.4 70l4.2 5l-0.5 108.1l67 6.8v14.4l-67.1-7.7l-0.2 42.5l67.3 6.9v14.7l-67.4-7.8l-2.6 550.7z" /><path class="s1" d="m0 818.8c168.2 271.9 586.6 663.9 1500 227.2v7.3c-906.2 432.1-1327.3 51.2-1500-221.9z" /><path class="s9" d="m1222.7 554.5q4.7-6 17-5.4l-15.3 13l-21.5-11.4q11.4-5 19.8 3.8z" /><path class="s9" d="m1318.7 440.2q5.5-5.2 17.6-2.8l-17.1 10.5l-19.6-14.6q12.1-3.2 19.1 6.9z" /><path class="s9" d="m214.6 386.9q5.6-5.2 17.6-2.8l-17.1 10.5l-19.5-14.6q12.1-3.2 19 6.9z" /><path class="s9" d="m863 942.1q5.6-5.2 17.6-2.7l-17.1 10.5l-19.5-14.6q12.1-3.2 19 6.8z" /><path class="s9" d="m76.6 440.5q11.2-10.5 35.3-5.6l-34.3 21.2l-39.2-29.5q24.3-6.3 38.2 13.9z" /></svg>